<svg width="64" height="64" viewBox="0 0 64 64" fill="none" xmlns="http://www.w3.org/2000/svg">
<path d="M18.6043 0.000488281C17.5749 2.04255 16.9827 4.34442 16.9844 6.78948C16.9867 13.6718 21.5956 19.4631 27.8815 21.2602C30.7225 15.6094 29.7982 8.54206 25.092 3.82514C23.2214 1.94959 20.9791 0.67911 18.6043 0.000488281Z" fill="url(#paint0_linear_918_2750)"/>
<path d="M21.6958 27.6841C19.9609 21.2851 14.1433 16.5745 7.21567 16.5781C4.59945 16.5791 2.14139 17.2541 0 18.4352C0.663485 20.8901 1.94388 23.2119 3.86655 25.1381C8.6974 29.9813 15.9956 30.8235 21.6958 27.6841Z" fill="url(#paint1_linear_918_2750)"/>
<path d="M36.5165 42.1343C33.2107 47.8953 33.9967 55.3735 38.9085 60.2946C40.6773 62.0679 42.78 63.2963 45.0116 63.9996C46.2799 61.7884 47.0161 59.2311 47.0147 56.4966C47.0124 49.7585 42.5987 44.0576 36.5165 42.1343Z" fill="#FFB45C"/>
<path d="M42.5078 36.3141C44.4697 42.3478 50.117 46.7105 56.7854 46.7059C59.3142 46.7051 61.6932 46.0703 63.7837 44.9615C63.0736 42.7761 61.8664 40.7177 60.1345 38.9818C55.3609 34.196 48.1767 33.3088 42.5078 36.3141Z" fill="#FFB45C"/>
<path d="M16.9844 56.5088C16.9854 59.2389 17.7213 61.792 18.9882 63.9999C21.2237 63.2953 23.3299 62.0633 25.1006 60.2847C30.0032 55.3624 30.7866 47.8899 27.4826 42.1338C21.3945 44.0583 16.9797 49.7656 16.9844 56.5088Z" fill="url(#paint2_linear_918_2750)"/>
<path d="M21.4917 36.3141C15.819 33.3053 8.6302 34.1965 3.85779 38.9891C2.12979 40.7241 0.925554 42.7804 0.216797 44.9628C2.31088 46.0735 4.69473 46.7079 7.22845 46.7061C13.8911 46.7038 19.5317 42.3428 21.4917 36.3141Z" fill="url(#paint3_linear_918_2750)"/>
<path d="M47.0151 6.77757C47.0143 4.33643 46.4216 2.0388 45.3935 0C43.016 0.679926 40.7717 1.95301 38.9003 3.83231C34.2009 8.55053 33.2812 15.6132 36.1187 21.2601C42.4091 19.4618 47.0187 13.6651 47.0151 6.77757Z" fill="url(#paint4_linear_918_2750)"/>
<path d="M42.3047 27.6836C48.01 30.8251 55.3128 29.9805 60.1434 25.128C62.0603 23.2035 63.3376 20.8855 64 18.4349C61.8552 17.2522 59.3933 16.5768 56.7728 16.5781C49.8499 16.5807 44.0394 21.2903 42.3047 27.6836Z" fill="#FFB45C"/>
<defs>
<linearGradient id="paint0_linear_918_2750" x1="78.0463" y1="10.6992" x2="-24.1936" y2="10.6992" gradientUnits="userSpaceOnUse">
<stop offset="0.479167" stop-color="#FFB45C"/>
<stop offset="0.677083" stop-color="#FFB45C" stop-opacity="0"/>
</linearGradient>
<linearGradient id="paint1_linear_918_2750" x1="29.1641" y1="32.7667" x2="-32.4782" y2="32.274" gradientUnits="userSpaceOnUse">
<stop offset="0.161458" stop-color="#FFB45C"/>
<stop offset="0.578125" stop-color="#FFB45C" stop-opacity="0"/>
</linearGradient>
<linearGradient id="paint2_linear_918_2750" x1="23.234" y1="42.1338" x2="-10.6058" y2="42.1285" gradientUnits="userSpaceOnUse">
<stop stop-color="#FFB45C"/>
<stop offset="0.328125" stop-color="#FFB45C" stop-opacity="0"/>
</linearGradient>
<linearGradient id="paint3_linear_918_2750" x1="21.5415" y1="34.4384" x2="-22.2046" y2="34.4384" gradientUnits="userSpaceOnUse">
<stop stop-color="#FFB45C"/>
<stop offset="0.65625" stop-color="#FFB45C" stop-opacity="0"/>
</linearGradient>
<linearGradient id="paint4_linear_918_2750" x1="59.654" y1="21.3986" x2="5.46846" y2="21.3986" gradientUnits="userSpaceOnUse">
<stop offset="0.359375" stop-color="#FFB45C"/>
<stop offset="1" stop-color="#FFB45C" stop-opacity="0"/>
</linearGradient>
</defs>
</svg>
